<svg width="944" height="608" viewBox="0 0 944 608" fill="none" xmlns="http://www.w3.org/2000/svg">
<path d="M671.442 204.155C651.17 172.306 612.78 154.517 575.461 160.812C547.823 165.481 528.188 186.074 507.444 203.131C487.181 219.796 414.542 281.265 408.302 286.81C393.471 299.994 374.671 314.1 353.763 314.1C321.74 314.1 295.683 287.952 295.683 255.82C295.683 236.004 307.199 217.146 323.456 206.347C333.474 199.696 343.673 197.549 353.682 198.408C370.856 199.888 387.468 210.249 401.581 221.952C413.379 231.728 425.132 241.54 436.875 251.362L466.192 227.251C456.42 219.211 446.647 211.18 436.875 203.141C416.14 186.083 396.495 165.49 368.858 160.821C331.539 154.517 293.14 172.315 272.877 204.164C263.096 219.531 257.864 237.584 257.864 255.82C257.864 304.471 295.746 346.644 344 351.559C371.883 354.4 400.337 343.309 420.654 324.296C444.104 302.342 469.544 282.882 494.247 262.389C495.255 261.549 496.264 260.708 497.272 259.868C512.403 247.205 527.543 234.542 542.737 221.952C556.851 210.249 573.463 199.888 590.637 198.408C600.646 197.54 610.845 199.696 620.863 206.347C637.111 217.146 648.636 236.004 648.636 255.82C648.636 284.124 626.13 308.993 598.584 313.525C584.298 315.873 569.739 312.255 558.304 303.329C541.03 289.853 524.446 275.152 507.498 261.22C504.347 263.86 501.186 266.482 498.035 269.113C491.45 274.623 484.784 280.196 478.09 285.796C491.877 297.299 505.673 308.783 519.569 320.212C550.793 345.894 586.259 361.188 626.049 345.227C659.471 331.825 683.221 299.72 686.146 263.686C686.355 261.073 686.464 258.442 686.464 255.82C686.464 237.584 681.232 219.531 671.451 204.164L671.442 204.155Z" fill="#191B1F"/>
<path d="M589.746 82.2407C584.079 79.2531 577.295 79.2531 571.618 82.2407L473.576 133.97L375.533 82.2407C369.866 79.2531 363.081 79.2531 357.405 82.2407L220 154.728V198.417L366.469 121.143L464.512 172.872C470.179 175.86 476.963 175.86 482.64 172.872L580.682 121.143L724 196.754V153.065L589.746 82.2407Z" fill="#191B1F"/>
<path d="M510.486 448.388C522.994 446.52 537.74 451.538 546.765 460.417C543.135 463.981 539.587 467.629 536.128 471.361C529.678 465.564 524.103 462.482 515.284 462.246C511.6 462.147 503.074 463.814 501.1 466.811C494.626 476.039 513.998 480.363 520.624 481.196C540.799 483.74 556.683 497.173 542.636 518.253C537.838 525.441 524.69 527.403 515.704 528C513.98 527.951 512.254 527.872 510.53 527.774C498.539 527.024 488.835 522.622 480.891 513.556C483.114 510.864 488.454 505.806 491.103 503.134C492.842 504.514 494.601 506.037 496.345 507.358C503.244 512.614 511.976 514.793 520.512 513.388C525.559 512.604 532.996 509.887 531.3 503.35C529.878 497.884 519.608 496.365 514.898 495.478C500.259 492.717 481.057 488.502 483.558 468.901C485.415 454.403 498.06 450.079 510.486 448.388Z" fill="#191B1F"/>
<path d="M596.109 448.395C612.581 446.197 627.107 453.31 636.873 466.394C632.401 468.793 627.762 471.698 623.388 474.327C621.828 472.641 620.069 470.7 618.343 469.211C609.198 461.312 595.005 460.781 585.161 467.711C579.496 471.692 575.678 477.807 574.574 484.669C573.567 491.3 575.342 498.053 579.467 503.322C588.871 515.163 607.546 515.979 618.905 506.389L623.305 501.833C626.819 503.489 633.764 507.662 636.882 509.854C622.987 529.525 592.908 533.737 573.704 519.862C565.356 513.777 559.765 504.595 558.176 494.352C556.495 483.951 559.08 473.31 565.341 464.861C573.201 454.293 583.528 450.125 596.109 448.395Z" fill="#191B1F"/>
<path d="M80.5593 448.916C85.6972 448.718 91.4346 448.852 96.6185 448.862C97.2274 469.357 96.0652 491.001 97.0936 511.194C107.343 510.619 118.146 511.303 128.453 511.026C132.517 510.917 137.388 510.941 141.412 511.357L141.427 523.795C141.411 524.474 141.279 524.727 141.099 525.396C137.327 526.868 87.9459 526.248 80.5806 526.288C79.7967 522.026 80.0586 514.097 80.0691 509.459L80.1465 482.919C80.1665 475.619 79.604 454.932 80.5593 448.916Z" fill="#191B1F"/>
<path d="M303.96 448.88C308.604 448.761 312.04 448.771 316.669 449.049C317.075 454.578 316.506 462.494 316.556 468.449L316.566 525.874C311.439 526.295 306.144 526.701 301.04 526.018C300.671 518.745 300.746 511.254 300.805 503.976C300.731 495.965 300.412 487.201 301.655 479.334C296.921 485.11 291.359 492.69 286.99 498.744C273.381 517.595 272.417 517.392 259.51 499.368L245.524 479.79C245.774 486.295 246.69 521.107 245.279 525.259C242.581 526.914 233.36 526.186 229.911 526.067C228.927 512.195 230.198 493.711 229.687 479.423C229.544 475.454 229.49 451.447 230.18 448.89C234.423 448.766 238.657 448.85 242.902 448.9C251.999 460.205 264.423 477.932 273.077 489.901C274.625 487.488 276.308 485.194 278.091 482.955C286.935 471.823 295.001 459.893 303.96 448.88Z" fill="#191B1F"/>
<path d="M451.002 448.902C456.05 448.763 461.099 448.778 466.147 448.947C466.594 464.724 466.045 481.429 466.249 497.286C466.307 501.799 466.579 523.578 465.802 526.224C460.812 526.531 455.526 526.328 450.517 526.179C450.313 518.166 449.657 453.459 451.002 448.902Z" fill="#191B1F"/>
<path fill-rule="evenodd" clip-rule="evenodd" d="M679.878 448.842C684.273 448.792 688.669 448.798 693.064 448.857C695.597 452.526 702.889 469.521 705.302 474.712C713.199 491.708 721.548 508.655 729.023 525.815C723.241 526.519 717.47 526.514 711.669 526.102C709.305 521.288 706.673 515.447 705.138 510.321L667.715 510.232C666.27 514.624 662.823 521.893 660.801 526.137C655.557 526.533 648.697 526.281 643.348 526.172C648.712 512.557 658.342 494.426 664.446 480.861C667.377 474.346 676.784 453.577 679.878 448.842ZM686.28 469.428C682.426 478.327 678.443 487.168 674.33 495.948C678.383 495.78 682.044 495.655 686.096 495.71L698.284 495.794C695.428 489.681 692.627 483.543 689.886 477.375C689.151 475.739 687.05 470.534 686.28 469.428Z" fill="#191B1F"/>
<path d="M731.963 448.908C750.271 449.185 768.856 448.433 787.14 449.076C787.263 453.852 787.239 458.633 787.061 463.409C781.774 463.904 767.875 463.587 762.099 463.522L762.054 500.675C762.084 505.5 762.508 521.688 761.507 525.257C758.469 527.019 749.945 526.242 746.222 526.03C745.689 518.75 745.901 509.559 745.901 502.106L745.892 463.642C741.827 463.488 723.933 464.032 721.876 462.988C720.406 459.712 720.934 452.486 721.654 449.022C724.969 448.834 728.629 448.854 731.963 448.908Z" fill="#191B1F"/>
<path d="M800.706 449.162C819.744 448.624 844.708 448.747 863.806 449.211C863.915 452.881 864.392 459.623 863.269 462.976C860.928 464.137 822.623 463.648 816.707 463.653L816.702 479.735C829.457 479.359 844.251 479.754 857.125 479.803C857.558 484.115 857.418 489.735 857.225 494.052C847.581 494.526 833.827 494.112 823.85 494.117L816.712 494.072L816.697 511.294C830.412 510.899 850.186 510.81 863.816 511.324C863.871 514.243 864.462 523.661 863.016 525.632C858.458 526.466 805.078 526.689 801.029 525.874C800.035 522.871 799.821 454.232 800.706 449.162Z" fill="#191B1F"/>
<path d="M155.118 449.102C173.888 448.702 197.659 448.692 216.361 449.186C216.466 453.953 216.47 458.721 216.373 463.493C204.143 464.611 184.007 463.246 170.59 463.814C170.641 468.997 170.791 474.502 170.622 479.655L210.222 479.817C210.449 484.723 210.362 489.189 210.276 494.08C198.391 494.58 185.07 494.006 172.823 494.303C171.982 494.278 172.13 494.322 171.288 494.555C170.258 497.759 170.671 507.393 170.736 511.31C183.883 510.612 202.857 511.225 216.513 511.171C216.546 514.514 216.852 522.763 216.006 525.532C213.083 526.492 157.747 526.685 155.164 525.884C154.163 521.017 154.036 451.61 155.118 449.102Z" fill="#191B1F"/>
<path d="M331.902 448.869C337.035 448.765 342.171 448.794 347.303 448.963C347.53 474.581 347.586 500.199 347.473 525.816C344.532 526.402 335.222 526.739 332.298 525.786C331.199 521.782 331.075 453.336 331.902 448.869Z" fill="#191B1F"/>
<path d="M420.371 449.598C424.06 448.326 431.278 448.935 435.438 449.093L435.502 500.178C435.512 505.584 435.899 520.845 435.268 525.711C430.547 526.631 426.673 526.463 421.923 526.057C418.298 522.909 405.835 508.474 401.926 503.885C395.25 496.044 384.037 484.748 378.322 477.17C377.971 493.302 378.411 509.806 378.185 526.013C373.534 526.567 367.146 526.374 362.478 526.082C362.076 519.192 361.68 452.932 362.88 448.984C366.901 448.845 370.929 448.909 374.953 448.939C380.165 453.567 388.355 463.517 393.296 469.101L419.677 498.337C419.618 493.06 418.998 451.867 420.371 449.598Z" fill="#191B1F"/>
</svg>
